<svg xmlns="http://www.w3.org/2000/svg" version="1.1" xmlns:xlink="http://www.w3.org/1999/xlink" xmlns:svgjs="http://svgjs.dev/svgjs" width="1500" height="1500" viewBox="0 0 1500 1500"><rect width="1500" height="1500" fill="#000000"></rect><g transform="matrix(0.6666666666666666,0,0,0.6666666666666666,250.27340860111286,238.08151147098522)"><svg viewBox="0 0 241 247" data-background-color="#ffffff" preserveAspectRatio="xMidYMid meet" height="1537" width="1500" xmlns="http://www.w3.org/2000/svg" xmlns:xlink="http://www.w3.org/1999/xlink"><g id="tight-bounds" transform="matrix(1,0,0,1,-0.06589147286820207,-0.09999999999999432)"><svg viewBox="0 0 241.1317829457364 247.2" height="247.2" width="241.1317829457364"><g><svg viewBox="0 0 241.13178294573643 247.20000000000002" height="247.2" width="241.1317829457364"><g><svg viewBox="0 0 241.13178294573643 247.20000000000002" height="247.20000000000002" width="241.13178294573643"><g id="textblocktransform"><svg viewBox="0 0 241.13178294573643 247.20000000000002" height="247.20000000000002" width="241.13178294573643" id="textblock"><g><svg viewBox="0 0 241.13178294573643 247.20000000000002" height="247.20000000000002" width="241.13178294573643"><g transform="matrix(1,0,0,1,0,0)"><svg width="241.13178294573643" viewBox="2.81 -36.99 36.86 37.800000000000004" height="247.20000000000002" data-palette-color="#3949fd"><path d="M9.77-36.91L12.55-36.91 17.11-36.99Q29.05-36.99 33.89-33.03L33.89-33.03Q34.91-32.28 36.13-30.49L36.13-30.49Q39.67-25.34 39.67-19.12L39.67-19.12Q39.67-8.01 32.03-2.69L32.03-2.69Q27.47 0.51 21.53 0.56L21.53 0.56 21.44 0.66 20.83 0.66 14.33 0.59Q9.91 0.59 3.27 0.81L3.27 0.81Q2.81-0.07 2.81-1.27L2.81-1.27 2.83-2.15 2.83-5.96 2.88-11.38 2.88-20.31Q2.83-23.39 2.83-24.9L2.83-24.9 2.83-28.91 2.86-29.47 2.86-36.45Q2.86-36.65 5.52-36.78 8.18-36.91 9.77-36.91L9.77-36.91ZM22.9-28.47L22.9-28.47Q21.51-29.47 19.82-29.59L19.82-29.59Q19.24-29.61 18.23-29.64 17.21-29.66 16.75-29.69L16.75-29.69Q16.31-29.03 16.16-28.71L16.16-28.71 15.72-27.81 15.72-26.44Q15.72-22.22 15.92-14.99L15.92-14.99 16.06-7.93Q16.21-7.18 17.04-7.03L17.04-7.03Q19.56-7.08 20.92-7.37L20.92-7.37Q25.73-9.08 25.73-19.07L25.73-19.07Q25.73-26.46 22.9-28.47Z" opacity="1" transform="matrix(1,0,0,1,0,0)" fill="#ffffff" class="wordmark-text-0" data-fill-palette-color="primary" id="text-0"></path></svg></g></svg></g></svg></g></svg></g></svg></g><defs></defs></svg><rect width="241.1317829457364" height="247.2" fill="none" stroke="none" visibility="hidden"></rect></g></svg></g></svg>